<svg fill="none" height="800" viewBox="0 0 700 800" width="700" xmlns="http://www.w3.org/2000/svg"><g stroke-miterlimit="10"><g stroke="#c7ab77"><path d="m359.5 536c75.387 0 136.5-61.113 136.5-136.5s-61.113-136.5-136.5-136.5-136.5 61.113-136.5 136.5 61.113 136.5 136.5 136.5z" stroke-width="3.30386"/><path d="m307 272.701s37.573-30.056 35.341-53.377c-2.232-23.322-11.346-25.293-3.348-48.45s13.021-31.369 3.348-49.928c-9.672-18.558-1.674-34.6536 2.232-43.3581 3.907-8.7046-5.58-16.5879-5.58-16.5879s16.927 2.2993 14.509 17.0806-9.859 31.8614 12.09 50.2564c21.949 18.394 12.277 39.252 13.207 50.913s2.046 15.767 7.626 23.486 6.51 19.544 6.324 31.041c-.558 21.35 23.251 41.223 23.251 41.223" stroke-width="3"/><path d="m419 522s-42.065 37.53-39.851 63.653c2.214 26.124 11.439 28.148 3.69 54.271-7.749 26.124-12.73 35.323-2.952 55.927 9.778 20.605 2.029 38.818-1.845 48.568-3.875 9.75 5.904 18.581 5.904 18.581s-16.789-2.392-14.391-18.949 9.409-35.69-12.361-56.295c-21.771-20.604-12.546-43.784-13.653-56.846s-2.214-17.661-7.749-26.124c-5.535-8.462-6.642-21.892-6.457-34.586.369-23.916-29.335-47.648-29.335-47.648" stroke-width="3"/><path d="m444.443 291.854s41.133 8.886 60.473-5.504c19.34-14.389 16.367-22.44 40.573-29.044 24.377-6.599 34.001-7.587 45.224-24.909 11.222-17.322 29.308-20.332 38.791-22.153 9.482-1.821 11.602-13.501 11.602-13.501s6.534 13.969-7.551 20.099c-14.263 6.289-32.726 10.28-37.754 36.592-5.035 26.478-27.963 30.809-37.801 37.915-9.667 7.112-12.69 10.318-16.576 18.625-3.887 8.307-13.731 15.579-23.876 21.681-18.889 11.26-24.552 41.026-24.552 41.026" stroke-width="3"/><path d="m494.881 413.052s14.19 52.863 36.656 63.796c22.465 10.933 28.519 4.488 45.913 23.454 17.219 18.959 22.465 27.263 43.9 29.556 21.61 2.302 32.526 17.208 38.493 25.027s18.019 4.383 18.019 4.383-10.33 12.277-22.507 2.301c-12.352-9.984-24.323-24.764-51.77-17.518-27.453 7.418-41.709-11.241-53.022-16.883-11.138-5.634-15.462-6.851-25.103-6.576-9.64.274-21.128-5.375-31.363-11.658-19.268-11.999-51.223-1.68-51.223-1.68" stroke-width="3"/><path d="m226.477 370.231s-17.069-47.339-38.427-57.922c-21.358-10.584-27.562-4.984-43.638-22.52-16.077-17.536-20.562-25.239-41.521-27.913-20.9595-2.674-30.8736-16.478-36.3649-23.82-5.4835-7.186-17.2917-4.413-17.2917-4.413s10.5498-10.795 21.9472-1.419c11.5677 9.367 22.6736 23.111 49.6874 17.238 27.014-5.873 40.18 11.499 50.863 16.869 10.683 5.369 14.67 6.567 24.228 6.551 9.387-.008 20.24 5.353 30.111 11.541 18.155 11.367 50.323 6.166 50.323 6.166" stroke-width="3"/><path d="m278.716 508.107s-50.56-17.657-70.886-3.282c-20.511 14.21-17.872 22.884-42.918 28.717s-34.951 6.108-47.229 23.863c-12.44 17.941-30.9367 19.999-40.7638 21.507-9.8272 1.508-12.5349 13.703-12.5349 13.703s-5.8384-15.19 8.9445-20.902c14.7717-5.889 33.7212-9.036 40.4852-36.873 6.763-27.838 30.232-31.095 40.406-38.106 10.348-7.023 13.452-10.226 17.782-18.811 4.329-8.586 14.828-15.972 25.427-21.772 19.845-10.985 26.928-42.025 26.928-42.025" stroke-width="3"/></g><path d="m288.562 536.073-65.562 69.927 44.531-83.854" stroke="#c0a678"/><path d="m288.562 276.927-65.562-69.927 44.531 83.854" stroke="#c0a678"/><path d="m427.438 536.073 65.562 69.927-44.531-83.854" stroke="#c0a678"/><path d="m427.438 276.927 65.562-69.927-44.531 83.854" stroke="#c0a678"/><path d="m501.56 387.098 95.44 8.902-93.544 16.251" stroke="#c0a678"/><path d="m193.44 386.098-95.44 8.902 93.544 16.251" stroke="#c0a678"/></g></svg>