<svg fill="none" height="700" viewBox="0 0 700 700" width="700" xmlns="http://www.w3.org/2000/svg"><path d="m585.736 277.881 1.335 11.156 11.04 3.718-10.931 1.871-4.253 11.266-2.243-11.81-11.073-3.827 11.639-1.552z" stroke="#c0a678" stroke-miterlimit="10"/><path d="m567.146 478.878.155 15.177 13.915 5.693-14.886 3.701.926 15.027-8.487-12.754-13.558 5.19 8.494-12.218-11.556-12.545 16.079 4.471z" stroke="#c0a678" stroke-miterlimit="10"/><g stroke="#c3a877" stroke-width="2"><path d="m575.239 344.558c-.547-.722-.944-1.628-1.239-2.565-.295.937-.692 1.843-1.239 2.565-.674.891-1.578 1.51-2.532 1.942.954.432 1.858 1.051 2.532 1.942.547.722.944 1.628 1.239 2.565.295-.937.692-1.843 1.239-2.565.674-.891 1.578-1.51 2.532-1.942-.954-.432-1.858-1.051-2.532-1.942z"/><path d="m523.239 203.558c-.547-.722-.944-1.628-1.239-2.565-.295.937-.692 1.843-1.239 2.565-.674.891-1.578 1.51-2.532 1.942.954.432 1.858 1.051 2.532 1.942.547.722.944 1.628 1.239 2.565.295-.937.692-1.843 1.239-2.565.674-.891 1.578-1.51 2.532-1.942-.954-.432-1.858-1.051-2.532-1.942z"/><path d="m314.5 486.29c-.041.161-.084.321-.128.479-.41 1.463-.989 2.896-1.831 3.983-1.033 1.335-2.491 2.193-3.996 2.748 1.505.555 2.963 1.413 3.996 2.748.842 1.087 1.421 2.52 1.831 3.983.044.158.087.318.128.479.041-.161.084-.321.128-.479.41-1.463.989-2.896 1.831-3.983 1.033-1.335 2.491-2.193 3.996-2.748-1.505-.555-2.963-1.413-3.996-2.748-.842-1.087-1.421-2.52-1.831-3.983-.044-.158-.087-.318-.128-.479z"/></g><path d="m337.436 138.025c115.125 0 208.715 93.59 208.715 208.715 0 115.126-93.791 208.514-208.715 208.514-48.707 0-94.999-16.705-131.831-46.895 23.951 12.277 50.317 18.717 77.086 18.717 96.81 0 175.707-82.519 175.707-183.958 0-101.44-78.897-183.959-175.707-183.959-17.712 0-35.423 2.817-52.128 8.252 32.001-19.121 68.833-29.386 106.873-29.386zm0-4.025c-54.342 0-103.854 20.328-141.29 53.739 25.36-15.699 55.147-24.555 86.746-24.555 94.798 0 171.682 80.507 171.682 179.934 0 99.426-76.884 179.933-171.682 179.933-41.863 0-80.104-15.699-109.892-41.662 39.046 47.499 98.219 77.89 164.436 77.89 117.54 0 212.74-95.199 212.74-212.74 0-117.54-95.401-212.539-212.74-212.539z" fill="#c3a877"/></svg>