<svg width="700" height="720" viewBox="0 0 700 720" fill="none" xmlns="http://www.w3.org/2000/svg">
<path d="M294.633 264.26L353.095 31.3945L410.82 264.26" stroke="#C0A678" stroke-width="3.43996" stroke-miterlimit="10"/>
<path d="M410.083 262.295L642.457 201.622L465.843 364.235" stroke="#C0A678" stroke-width="3.43996" stroke-miterlimit="10"/>
<path d="M466.089 364.234L642.211 527.338L410.083 466.174" stroke="#C0A678" stroke-width="3.43996" stroke-miterlimit="10"/>
<path d="M412.785 465.929L352.849 698.549L296.353 465.192" stroke="#C0A678" stroke-width="3.43996" stroke-miterlimit="10"/>
<path d="M299.053 465.438L68.399 532.251L240.592 364.972" stroke="#C0A678" stroke-width="3.43996" stroke-miterlimit="10"/>
<path d="M241.329 366.936L64.7151 204.324L297.089 264.751" stroke="#C0A678" stroke-width="3.43996" stroke-miterlimit="10"/>
<path d="M466.088 365.463L642.457 202.85L410.328 263.277L353.095 32.6229L294.633 265.488L64.7151 205.552L239.855 366.691L68.3997 533.48L296.598 467.157L352.849 699.777L412.539 467.894L642.211 528.567L466.088 365.463Z" stroke="#C0A678" stroke-width="3.43996" stroke-miterlimit="10"/>
<path d="M569.921 59.5036L585.026 45.5855L565.15 50.7523L560.23 31L555.237 50.95L535.534 45.808L550.54 59.6272L535.855 73.8913L555.41 68.2301L560.206 88.1307L565.323 68.3043L585.001 73.4958L569.921 59.5036Z" stroke="#C0A678" stroke-width="1.0085" stroke-miterlimit="10"/>
<path d="M92.523 385.016L116.033 363.353L85.0967 371.395L77.4396 340.651L69.667 371.702L39 363.699L62.3562 385.208L39.5002 407.41L69.9364 398.599L77.4011 429.573L85.3661 398.714L115.995 406.794L92.523 385.016Z" stroke="#C0A678" stroke-width="1.13284" stroke-miterlimit="10"/>
<path d="M566.356 608.934L574.948 601.018L563.643 603.956L560.845 592.722L558.004 604.069L546.798 601.144L555.333 609.004L546.98 617.117L558.103 613.897L560.83 625.216L563.741 613.94L574.934 616.892L566.356 608.934Z" stroke="#C0A678" stroke-width="1.27955" stroke-miterlimit="10"/>
</svg>
